<?xml version="1.0" encoding="UTF-8" standalone="no"?>
<svg
   width="14"
   height="15"
   viewBox="0 0 14 15"
   fill="none"
   version="1.1"
   id="svg1"
   xmlns="http://www.w3.org/2000/svg"
   xmlns:svg="http://www.w3.org/2000/svg">
  <defs
     id="defs1" />
  <path
     d="M 1.16602,7.49984 H 12.8327 m 0,0 L 6.99935,1.6665 M 12.8327,7.49984 6.99935,13.3332"
     stroke="#406aff"
     stroke-width="1.66667"
     stroke-linecap="round"
     stroke-linejoin="round"
     id="path1" />
  <path
     style="fill:#ffffff;stroke-width:0.0174216"
     d="M 6.8065937,14.135966 C 6.5902012,14.085042 6.3616098,13.899538 6.2634714,13.695217 6.1497078,13.458366 6.1480045,13.226047 6.2582214,12.979094 6.3112991,12.860168 6.3685341,12.801178 8.5657322,10.600824 9.8049279,9.3598493 10.818815,8.3387256 10.818815,8.3316606 c 0,-0.00706 -2.2015383,-0.012845 -4.892308,-0.012845 -5.3690389,0 -4.97255806,0.00772 -5.15995648,-0.1005306 C 0.654532,8.1535744 0.51275697,8.0140382 0.45422532,7.9108911 0.31169803,7.6597235 0.3116355,7.3403909 0.45406443,7.0893901 0.51335944,6.9848951 0.67898321,6.8218321 0.77603821,6.7723943 0.9678915,6.6746679 0.59990516,6.6811847 5.926507,6.6811847 c 2.6907697,0 4.892308,-0.00578 4.892308,-0.012844 0,-0.00706 -1.0103896,-1.0242682 -2.2453105,-2.2604529 C 6.3815131,2.2136527 6.3267044,2.1571759 6.2654822,2.0296167 6.10322,1.6915355 6.1683749,1.325572 6.4352791,1.0758961 6.7258002,0.80412792 7.1229662,0.7673965 7.4489918,0.98214414 7.5169061,1.0268782 8.5730272,2.0723001 10.533634,4.0355371 c 2.780144,2.7838742 2.985124,2.9931554 3.037009,3.1007362 0.111469,0.2311284 0.111469,0.496325 0,0.7274534 -0.05189,0.1075808 -0.256865,0.316862 -3.037009,3.1007363 -1.9606068,1.963237 -3.0167279,3.008659 -3.0846422,3.053393 -0.1841141,0.121273 -0.4338496,0.167189 -0.6423981,0.11811 z"
     id="path2" />
  <path
     style="fill:#ffffff;stroke-width:0.0174216"
     d="M 6.8769441,14.13579 C 6.647484,14.110588 6.377074,13.906438 6.2699582,13.677537 c -0.074401,-0.158993 -0.097868,-0.309306 -0.071915,-0.46065 0.029128,-0.169865 0.072576,-0.258774 0.1980723,-0.405329 0.060581,-0.07075 1.0804718,-1.102621 2.2664237,-2.293052 1.1859519,-1.1904313 2.1562758,-2.1713436 2.1562758,-2.1798051 0,-0.00884 -2.0485303,-0.019813 -4.8127172,-0.025789 C 3.2544044,8.3069634 1.1244636,8.2955735 1.032453,8.2863153 0.84514451,8.2674683 0.77408498,8.2329674 0.61034517,8.0813732 0.28636289,7.7814226 0.27249244,7.2807751 0.57902462,6.9508711 0.7222385,6.7967378 0.83488728,6.7353045 1.012937,6.7142362 c 0.090618,-0.010723 1.9695508,-0.021075 4.975739,-0.027415 2.9401642,-0.0062 4.830139,-0.016492 4.830139,-0.026301 0,-0.00886 -0.927181,-0.9466467 -2.0604026,-2.0839624 C 6.2966369,2.1058883 6.3363634,2.1469673 6.26843,2.0017971 6.1613005,1.7728667 6.1624458,1.5319148 6.2716922,1.3154991 6.4368247,0.98837325 6.8049449,0.79945378 7.1407876,0.86947895 c 0.272081,0.0567305 0.063929,-0.13840652 3.2529764,3.04957595 1.601152,1.6006174 2.969184,2.9775461 3.04007,3.0598418 0.167825,0.1948378 0.19857,0.2755212 0.19857,0.5211033 0,0.2456228 -0.03074,0.3262768 -0.198616,0.5211033 -0.222712,0.2584671 -5.9265533,5.9503007 -6.0127561,6.0000977 -0.1650458,0.09534 -0.3550246,0.135354 -0.5440878,0.114589 z"
     id="path3" />
</svg>
