<?xml version="1.0" encoding="UTF-8" standalone="no"?>
<svg
   width="50"
   height="51"
   viewBox="0 0 50 51"
   fill="none"
   version="1.1"
   id="svg1"
   sodipodi:docname="linkedin.svg"
   inkscape:export-filename="linkedin.svg"
   inkscape:export-xdpi="200"
   inkscape:export-ydpi="200"
   xmlns:inkscape="http://www.inkscape.org/namespaces/inkscape"
   xmlns:sodipodi="http://sodipodi.sourceforge.net/DTD/sodipodi-0.dtd"
   xmlns="http://www.w3.org/2000/svg"
   xmlns:svg="http://www.w3.org/2000/svg">
  <defs
     id="defs1" />
  <sodipodi:namedview
     id="namedview1"
     pagecolor="#505050"
     bordercolor="#ffffff"
     borderopacity="1"
     inkscape:showpageshadow="0"
     inkscape:pageopacity="0"
     inkscape:pagecheckerboard="1"
     inkscape:deskcolor="#505050" />
  <path
     d="M 38.300419,10.198136 H 11.002745 c -1.3076373,0 -2.3650067,1.021755 -2.3650067,2.285021 v 27.129162 c 0,1.263253 1.0573694,2.291197 2.3650067,2.291197 h 27.297674 c 1.30754,0 2.371205,-1.027944 2.371205,-2.284993 V 12.483157 c 0,-1.263266 -1.063665,-2.285021 -2.371205,-2.285021 z M 18.141538,37.215806 H 13.386512 V 22.081464 h 4.755026 z M 15.764024,20.019374 c -1.526609,0 -2.759162,-1.219913 -2.759162,-2.724678 0,-1.504764 1.232553,-2.724691 2.759162,-2.724691 1.520357,0 2.75291,1.219927 2.75291,2.724691 0,1.498576 -1.232553,2.724678 -2.75291,2.724678 z M 35.935343,37.215806 H 31.18653 v -7.356613 c 0,-1.752481 -0.03119,-4.01266 -2.471346,-4.01266 -2.471343,0 -2.846698,1.913352 -2.846698,3.888871 v 7.480402 H 21.125954 V 22.081464 h 4.554786 v 2.06828 h 0.06255 c 0.632043,-1.188952 2.183597,-2.446029 4.492265,-2.446029 4.811351,0 5.699803,3.133346 5.699803,7.208039 z"
     fill="#0288d1"
     id="path1"
     style="stroke-width:1.38561" />
</svg>
